<svg width="300" height="45" viewBox="0 0 300 45" fill="none" xmlns="http://www.w3.org/2000/svg">
<rect x="0.5" y="0.5" width="299" height="44" rx="5.5" fill="white"/>
<rect x="0.5" y="0.5" width="299" height="44" rx="5.5" stroke="#747775"/>
<path fill-rule="evenodd" clip-rule="evenodd" d="M76.14 22.7046C76.14 22.0664 76.0827 21.4527 75.9764 20.8636H67.5V24.345H72.3436C72.135 25.47 71.5009 26.4232 70.5477 27.0614V29.3196H73.4564C75.1582 27.7527 76.14 25.4455 76.14 22.7046Z" fill="#4285F4"/>
<path fill-rule="evenodd" clip-rule="evenodd" d="M67.5 31.5C69.93 31.5 71.9673 30.6941 73.4564 29.3196L70.5477 27.0614C69.7418 27.6014 68.7109 27.9205 67.5 27.9205C65.1559 27.9205 63.1718 26.3373 62.4641 24.21H59.4573V26.5418C60.9382 29.4832 63.9818 31.5 67.5 31.5Z" fill="#34A853"/>
<path fill-rule="evenodd" clip-rule="evenodd" d="M62.4641 24.21C62.2841 23.67 62.1818 23.0932 62.1818 22.5C62.1818 21.9068 62.2841 21.33 62.4641 20.79V18.4582H59.4573C58.8477 19.6732 58.5 21.0477 58.5 22.5C58.5 23.9523 58.8477 25.3268 59.4573 26.5418L62.4641 24.21Z" fill="#FBBC05"/>
<path fill-rule="evenodd" clip-rule="evenodd" d="M67.5 17.0795C68.8214 17.0795 70.0077 17.5336 70.9405 18.4255L73.5218 15.8441C71.9632 14.3918 69.9259 13.5 67.5 13.5C63.9818 13.5 60.9382 15.5168 59.4573 18.4582L62.4641 20.79C63.1718 18.6627 65.1559 17.0795 67.5 17.0795Z" fill="#EA4335"/>
<path d="M95.1543 22.4141V26.2148C95.013 26.4017 94.792 26.6068 94.4912 26.8301C94.195 27.0488 93.8008 27.238 93.3086 27.3975C92.8164 27.557 92.2035 27.6367 91.4697 27.6367C90.8454 27.6367 90.2734 27.5319 89.7539 27.3223C89.2344 27.1081 88.7855 26.7959 88.4072 26.3857C88.0335 25.9756 87.7441 25.4766 87.5391 24.8887C87.334 24.2962 87.2314 23.6217 87.2314 22.8652V22.1748C87.2314 21.4229 87.3249 20.7529 87.5117 20.165C87.7031 19.5726 87.9766 19.0713 88.332 18.6611C88.6875 18.251 89.1159 17.9411 89.6172 17.7314C90.123 17.5173 90.695 17.4102 91.333 17.4102C92.1488 17.4102 92.8232 17.5469 93.3564 17.8203C93.8942 18.0892 94.3089 18.4629 94.6006 18.9414C94.8923 19.4199 95.0768 19.9668 95.1543 20.582H93.4727C93.418 20.2357 93.3109 19.9258 93.1514 19.6523C92.9964 19.3789 92.7731 19.1647 92.4814 19.0098C92.1943 18.8503 91.8206 18.7705 91.3604 18.7705C90.9639 18.7705 90.6152 18.8457 90.3145 18.9961C90.0137 19.1465 89.763 19.3675 89.5625 19.6592C89.3665 19.9508 89.2184 20.3063 89.1182 20.7256C89.0179 21.1449 88.9678 21.6234 88.9678 22.1611V22.8652C88.9678 23.4121 89.0247 23.8975 89.1387 24.3213C89.2572 24.7451 89.4258 25.1029 89.6445 25.3945C89.8678 25.6862 90.139 25.9072 90.458 26.0576C90.777 26.2035 91.137 26.2764 91.5381 26.2764C91.93 26.2764 92.2513 26.2445 92.502 26.1807C92.7526 26.1123 92.9508 26.0326 93.0967 25.9414C93.2471 25.8457 93.3633 25.7546 93.4453 25.668V23.6924H91.374V22.4141H95.1543ZM96.5762 23.8838V23.7266C96.5762 23.1934 96.6536 22.6989 96.8086 22.2432C96.9635 21.7829 97.1868 21.3841 97.4785 21.0469C97.7747 20.7051 98.1348 20.4408 98.5586 20.2539C98.987 20.0625 99.4701 19.9668 100.008 19.9668C100.55 19.9668 101.033 20.0625 101.457 20.2539C101.885 20.4408 102.248 20.7051 102.544 21.0469C102.84 21.3841 103.066 21.7829 103.221 22.2432C103.376 22.6989 103.453 23.1934 103.453 23.7266V23.8838C103.453 24.417 103.376 24.9115 103.221 25.3672C103.066 25.8229 102.84 26.2217 102.544 26.5635C102.248 26.9007 101.888 27.165 101.464 27.3564C101.04 27.5433 100.559 27.6367 100.021 27.6367C99.4792 27.6367 98.9938 27.5433 98.5654 27.3564C98.1416 27.165 97.7816 26.9007 97.4854 26.5635C97.1891 26.2217 96.9635 25.8229 96.8086 25.3672C96.6536 24.9115 96.5762 24.417 96.5762 23.8838ZM98.2236 23.7266V23.8838C98.2236 24.2165 98.2578 24.5309 98.3262 24.8271C98.3945 25.1234 98.5016 25.3831 98.6475 25.6064C98.7933 25.8298 98.9801 26.0052 99.208 26.1328C99.4359 26.2604 99.707 26.3242 100.021 26.3242C100.327 26.3242 100.591 26.2604 100.814 26.1328C101.042 26.0052 101.229 25.8298 101.375 25.6064C101.521 25.3831 101.628 25.1234 101.696 24.8271C101.769 24.5309 101.806 24.2165 101.806 23.8838V23.7266C101.806 23.3984 101.769 23.0885 101.696 22.7969C101.628 22.5007 101.519 22.2386 101.368 22.0107C101.222 21.7829 101.035 21.6051 100.808 21.4775C100.584 21.3454 100.318 21.2793 100.008 21.2793C99.6979 21.2793 99.429 21.3454 99.2012 21.4775C98.9779 21.6051 98.7933 21.7829 98.6475 22.0107C98.5016 22.2386 98.3945 22.5007 98.3262 22.7969C98.2578 23.0885 98.2236 23.3984 98.2236 23.7266ZM104.52 23.8838V23.7266C104.52 23.1934 104.597 22.6989 104.752 22.2432C104.907 21.7829 105.13 21.3841 105.422 21.0469C105.718 20.7051 106.078 20.4408 106.502 20.2539C106.93 20.0625 107.413 19.9668 107.951 19.9668C108.493 19.9668 108.977 20.0625 109.4 20.2539C109.829 20.4408 110.191 20.7051 110.487 21.0469C110.784 21.3841 111.009 21.7829 111.164 22.2432C111.319 22.6989 111.396 23.1934 111.396 23.7266V23.8838C111.396 24.417 111.319 24.9115 111.164 25.3672C111.009 25.8229 110.784 26.2217 110.487 26.5635C110.191 26.9007 109.831 27.165 109.407 27.3564C108.983 27.5433 108.503 27.6367 107.965 27.6367C107.423 27.6367 106.937 27.5433 106.509 27.3564C106.085 27.165 105.725 26.9007 105.429 26.5635C105.132 26.2217 104.907 25.8229 104.752 25.3672C104.597 24.9115 104.52 24.417 104.52 23.8838ZM106.167 23.7266V23.8838C106.167 24.2165 106.201 24.5309 106.27 24.8271C106.338 25.1234 106.445 25.3831 106.591 25.6064C106.737 25.8298 106.924 26.0052 107.151 26.1328C107.379 26.2604 107.65 26.3242 107.965 26.3242C108.27 26.3242 108.535 26.2604 108.758 26.1328C108.986 26.0052 109.173 25.8298 109.318 25.6064C109.464 25.3831 109.571 25.1234 109.64 24.8271C109.713 24.5309 109.749 24.2165 109.749 23.8838V23.7266C109.749 23.3984 109.713 23.0885 109.64 22.7969C109.571 22.5007 109.462 22.2386 109.312 22.0107C109.166 21.7829 108.979 21.6051 108.751 21.4775C108.528 21.3454 108.261 21.2793 107.951 21.2793C107.641 21.2793 107.372 21.3454 107.145 21.4775C106.921 21.6051 106.737 21.7829 106.591 22.0107C106.445 22.2386 106.338 22.5007 106.27 22.7969C106.201 23.0885 106.167 23.3984 106.167 23.7266ZM117.515 20.1035H119.012V27.2949C119.012 27.9603 118.87 28.5254 118.588 28.9902C118.305 29.4551 117.911 29.8083 117.405 30.0498C116.899 30.2959 116.314 30.4189 115.648 30.4189C115.366 30.4189 115.051 30.3779 114.705 30.2959C114.363 30.2139 114.031 30.0817 113.707 29.8994C113.388 29.7217 113.121 29.487 112.907 29.1953L113.68 28.2246C113.944 28.5391 114.236 28.7692 114.555 28.915C114.874 29.0609 115.209 29.1338 115.56 29.1338C115.938 29.1338 116.259 29.0632 116.523 28.9219C116.792 28.7852 117 28.5824 117.146 28.3135C117.291 28.0446 117.364 27.7165 117.364 27.3291V21.7783L117.515 20.1035ZM112.49 23.8838V23.7402C112.49 23.1797 112.559 22.6693 112.695 22.209C112.832 21.7441 113.028 21.3454 113.283 21.0127C113.538 20.6755 113.848 20.418 114.213 20.2402C114.577 20.0579 114.99 19.9668 115.45 19.9668C115.929 19.9668 116.337 20.0534 116.674 20.2266C117.016 20.3997 117.3 20.6481 117.528 20.9717C117.756 21.2907 117.934 21.6735 118.062 22.1201C118.194 22.5622 118.292 23.0544 118.355 23.5967V24.0547C118.296 24.5833 118.196 25.0664 118.055 25.5039C117.913 25.9414 117.727 26.3197 117.494 26.6387C117.262 26.9577 116.975 27.2038 116.633 27.377C116.296 27.5501 115.897 27.6367 115.437 27.6367C114.985 27.6367 114.577 27.5433 114.213 27.3564C113.853 27.1696 113.543 26.9076 113.283 26.5703C113.028 26.2331 112.832 25.8366 112.695 25.3809C112.559 24.9206 112.49 24.4215 112.49 23.8838ZM114.138 23.7402V23.8838C114.138 24.221 114.17 24.5355 114.233 24.8271C114.302 25.1188 114.404 25.3763 114.541 25.5996C114.682 25.8184 114.86 25.9915 115.074 26.1191C115.293 26.2422 115.55 26.3037 115.847 26.3037C116.234 26.3037 116.551 26.2217 116.797 26.0576C117.048 25.8936 117.239 25.6725 117.371 25.3945C117.508 25.112 117.604 24.7975 117.658 24.4512V23.2139C117.631 22.945 117.574 22.6943 117.487 22.4619C117.405 22.2295 117.294 22.0267 117.152 21.8535C117.011 21.6758 116.833 21.5391 116.619 21.4434C116.405 21.3431 116.152 21.293 115.86 21.293C115.564 21.293 115.307 21.3568 115.088 21.4844C114.869 21.612 114.689 21.7874 114.548 22.0107C114.411 22.234 114.309 22.4938 114.24 22.79C114.172 23.0863 114.138 23.403 114.138 23.7402ZM122.484 17V27.5H120.83V17H122.484ZM127.55 27.6367C127.003 27.6367 126.508 27.5479 126.066 27.3701C125.629 27.1878 125.255 26.9349 124.945 26.6113C124.64 26.2878 124.405 25.9072 124.241 25.4697C124.077 25.0322 123.995 24.5605 123.995 24.0547V23.7812C123.995 23.2025 124.079 22.6784 124.248 22.209C124.417 21.7396 124.651 21.3385 124.952 21.0059C125.253 20.6686 125.608 20.4111 126.019 20.2334C126.429 20.0557 126.873 19.9668 127.352 19.9668C127.88 19.9668 128.343 20.0557 128.739 20.2334C129.136 20.4111 129.464 20.6618 129.724 20.9854C129.988 21.3044 130.184 21.6849 130.312 22.127C130.444 22.569 130.51 23.0566 130.51 23.5898V24.2939H124.795V23.1113H128.883V22.9814C128.874 22.6852 128.814 22.4072 128.705 22.1475C128.6 21.8877 128.438 21.6781 128.22 21.5186C128.001 21.359 127.709 21.2793 127.345 21.2793C127.071 21.2793 126.827 21.3385 126.613 21.457C126.404 21.571 126.228 21.7373 126.087 21.9561C125.946 22.1748 125.836 22.4391 125.759 22.749C125.686 23.0544 125.649 23.3984 125.649 23.7812V24.0547C125.649 24.3783 125.693 24.679 125.779 24.957C125.87 25.2305 126.003 25.4697 126.176 25.6748C126.349 25.8799 126.559 26.0417 126.805 26.1602C127.051 26.2741 127.331 26.3311 127.646 26.3311C128.042 26.3311 128.395 26.2513 128.705 26.0918C129.015 25.9323 129.284 25.7067 129.512 25.415L130.38 26.2559C130.22 26.4883 130.013 26.7116 129.758 26.9258C129.503 27.1354 129.19 27.3063 128.821 27.4385C128.457 27.5706 128.033 27.6367 127.55 27.6367ZM140.048 19.436H142.848V20.388H140.048V19.436ZM139.95 22.614H142.82V23.566H139.95V22.614ZM144.78 15.922H145.9V28.592H144.78V15.922ZM142.232 16.258H143.338V27.948H142.232V16.258ZM139.418 17.532H140.538C140.538 18.6333 140.379 19.6927 140.062 20.71C139.744 21.718 139.236 22.6607 138.536 23.538C137.845 24.406 136.935 25.1807 135.806 25.862L135.12 25.022C136.109 24.4247 136.921 23.7527 137.556 23.006C138.19 22.25 138.657 21.4333 138.956 20.556C139.264 19.6693 139.418 18.7313 139.418 17.742V17.532ZM135.68 17.532H139.866V18.484H135.68V17.532ZM154.775 19.212H157.617V20.178H154.775V19.212ZM157.267 15.922H158.429V23.468H157.267V15.922ZM154.257 23.86C155.134 23.86 155.885 23.9533 156.511 24.14C157.145 24.3267 157.631 24.5973 157.967 24.952C158.303 25.2973 158.471 25.722 158.471 26.226C158.471 26.9727 158.093 27.5513 157.337 27.962C156.59 28.3727 155.563 28.578 154.257 28.578C152.95 28.578 151.919 28.3727 151.163 27.962C150.416 27.5513 150.043 26.9727 150.043 26.226C150.043 25.722 150.211 25.2973 150.547 24.952C150.892 24.5973 151.377 24.3267 152.003 24.14C152.637 23.9533 153.389 23.86 154.257 23.86ZM154.257 24.77C153.622 24.77 153.076 24.826 152.619 24.938C152.161 25.05 151.807 25.2133 151.555 25.428C151.312 25.6427 151.191 25.9087 151.191 26.226C151.191 26.5247 151.312 26.7813 151.555 26.996C151.807 27.2107 152.161 27.3787 152.619 27.5C153.076 27.612 153.622 27.668 154.257 27.668C154.901 27.668 155.447 27.612 155.895 27.5C156.352 27.3787 156.702 27.2107 156.945 26.996C157.197 26.7813 157.323 26.5247 157.323 26.226C157.323 25.9087 157.197 25.6427 156.945 25.428C156.702 25.2133 156.352 25.05 155.895 24.938C155.447 24.826 154.901 24.77 154.257 24.77ZM151.233 17.21H152.185V18.232C152.185 19.0067 152.035 19.7347 151.737 20.416C151.447 21.088 151.037 21.6807 150.505 22.194C149.973 22.698 149.357 23.0853 148.657 23.356L148.055 22.432C148.531 22.264 148.96 22.0353 149.343 21.746C149.735 21.4567 150.071 21.1253 150.351 20.752C150.64 20.3787 150.859 19.9773 151.008 19.548C151.158 19.1187 151.233 18.68 151.233 18.232V17.21ZM151.457 17.21H152.409V18.218C152.409 18.7593 152.535 19.2867 152.787 19.8C153.039 20.3133 153.398 20.766 153.865 21.158C154.331 21.55 154.868 21.858 155.475 22.082L154.887 23.006C154.196 22.754 153.594 22.39 153.081 21.914C152.567 21.4287 152.166 20.8687 151.877 20.234C151.597 19.5993 151.457 18.9273 151.457 18.218V17.21ZM148.419 16.846H155.181V17.798H148.419V16.846ZM166.603 16.734C167.49 16.734 168.279 16.8787 168.969 17.168C169.66 17.4573 170.206 17.8633 170.607 18.386C171.009 18.9087 171.209 19.52 171.209 20.22C171.209 20.9293 171.009 21.5453 170.607 22.068C170.206 22.5907 169.66 22.9967 168.969 23.286C168.279 23.5753 167.49 23.72 166.603 23.72C165.735 23.72 164.951 23.5753 164.251 23.286C163.561 22.9967 163.015 22.5907 162.613 22.068C162.212 21.5453 162.011 20.9293 162.011 20.22C162.011 19.52 162.212 18.9087 162.613 18.386C163.015 17.8633 163.561 17.4573 164.251 17.168C164.951 16.8787 165.735 16.734 166.603 16.734ZM166.603 17.672C165.941 17.672 165.348 17.7793 164.825 17.994C164.303 18.2087 163.887 18.5073 163.579 18.89C163.271 19.2633 163.117 19.7067 163.117 20.22C163.117 20.724 163.271 21.1673 163.579 21.55C163.887 21.9327 164.303 22.2313 164.825 22.446C165.348 22.6607 165.941 22.768 166.603 22.768C167.275 22.768 167.873 22.6607 168.395 22.446C168.918 22.2313 169.329 21.9327 169.627 21.55C169.935 21.1673 170.089 20.724 170.089 20.22C170.089 19.7067 169.935 19.2633 169.627 18.89C169.329 18.5073 168.918 18.2087 168.395 17.994C167.873 17.7793 167.275 17.672 166.603 17.672ZM160.891 25.946H172.371V26.912H160.891V25.946ZM173.77 26.058H185.25V27.024H173.77V26.058ZM178.908 23.356H180.056V26.464H178.908V23.356ZM175.17 16.86H183.822V20.696H176.346V23.23H175.198V19.772H182.674V17.812H175.17V16.86ZM175.198 22.74H184.116V23.692H175.198V22.74ZM195.05 19.436H197.85V20.388H195.05V19.436ZM194.952 22.614H197.822V23.566H194.952V22.614ZM199.782 15.922H200.902V28.592H199.782V15.922ZM197.234 16.258H198.34V27.948H197.234V16.258ZM194.42 17.532H195.54C195.54 18.6333 195.381 19.6927 195.064 20.71C194.746 21.718 194.238 22.6607 193.538 23.538C192.847 24.406 191.937 25.1807 190.808 25.862L190.122 25.022C191.111 24.4247 191.923 23.7527 192.558 23.006C193.192 22.25 193.659 21.4333 193.958 20.556C194.266 19.6693 194.42 18.7313 194.42 17.742V17.532ZM190.682 17.532H194.868V18.484H190.682V17.532ZM203.014 22.278H214.48V23.23H203.014V22.278ZM208.152 20.346H209.3V22.712H208.152V20.346ZM208.138 16.118H209.132V16.692C209.132 17.14 209.044 17.5647 208.866 17.966C208.689 18.3673 208.437 18.736 208.11 19.072C207.793 19.408 207.424 19.7067 207.004 19.968C206.584 20.22 206.132 20.4393 205.646 20.626C205.161 20.8033 204.657 20.934 204.134 21.018L203.7 20.094C204.148 20.0287 204.587 19.926 205.016 19.786C205.455 19.6367 205.861 19.4593 206.234 19.254C206.608 19.0393 206.934 18.7967 207.214 18.526C207.504 18.2553 207.728 17.966 207.886 17.658C208.054 17.35 208.138 17.028 208.138 16.692V16.118ZM208.32 16.118H209.314V16.692C209.314 17.028 209.394 17.35 209.552 17.658C209.711 17.966 209.935 18.2553 210.224 18.526C210.514 18.7873 210.845 19.0253 211.218 19.24C211.592 19.4547 211.993 19.6367 212.422 19.786C212.861 19.926 213.304 20.0287 213.752 20.094L213.304 21.018C212.791 20.934 212.292 20.8033 211.806 20.626C211.33 20.4393 210.878 20.2153 210.448 19.954C210.028 19.6927 209.655 19.3987 209.328 19.072C209.011 18.736 208.764 18.372 208.586 17.98C208.409 17.5787 208.32 17.1493 208.32 16.692V16.118ZM204.288 24.462H213.038V28.592H211.876V25.386H204.288V24.462ZM224.475 15.922H225.623V28.592H224.475V15.922ZM225.357 21.13H227.695V22.11H225.357V21.13ZM215.823 17.952H223.285V18.904H215.823V17.952ZM219.617 19.94C220.215 19.94 220.742 20.066 221.199 20.318C221.666 20.57 222.03 20.9153 222.291 21.354C222.562 21.7833 222.697 22.2827 222.697 22.852C222.697 23.4213 222.562 23.9253 222.291 24.364C222.03 24.8027 221.666 25.148 221.199 25.4C220.742 25.6427 220.215 25.764 219.617 25.764C219.02 25.764 218.488 25.6427 218.021 25.4C217.564 25.148 217.2 24.8027 216.929 24.364C216.659 23.9253 216.523 23.4213 216.523 22.852C216.523 22.2827 216.659 21.7833 216.929 21.354C217.2 20.9153 217.564 20.57 218.021 20.318C218.488 20.066 219.02 19.94 219.617 19.94ZM219.617 20.906C219.235 20.906 218.894 20.99 218.595 21.158C218.297 21.326 218.059 21.5547 217.881 21.844C217.713 22.1333 217.629 22.4693 217.629 22.852C217.629 23.2347 217.713 23.5753 217.881 23.874C218.059 24.1633 218.297 24.392 218.595 24.56C218.894 24.7187 219.235 24.798 219.617 24.798C219.991 24.798 220.327 24.7187 220.625 24.56C220.924 24.392 221.157 24.1633 221.325 23.874C221.503 23.5753 221.591 23.2347 221.591 22.852C221.591 22.4693 221.503 22.1333 221.325 21.844C221.157 21.5547 220.924 21.326 220.625 21.158C220.327 20.99 219.991 20.906 219.617 20.906ZM219.015 16.076H220.177V18.372H219.015V16.076ZM237.998 15.922H239.16V28.592H237.998V15.922ZM234.288 17.294H235.436C235.436 18.2087 235.324 19.0907 235.1 19.94C234.886 20.7893 234.545 21.5967 234.078 22.362C233.612 23.118 233.005 23.8227 232.258 24.476C231.512 25.1293 230.606 25.7127 229.542 26.226L228.926 25.288C230.149 24.7 231.157 24.014 231.95 23.23C232.744 22.446 233.332 21.5733 233.714 20.612C234.097 19.6413 234.288 18.596 234.288 17.476V17.294ZM229.514 17.294H234.778V18.232H229.514V17.294Z" fill="#1F1F1F"/>
</svg>
