<svg width="300" height="45" viewBox="0 0 300 45" fill="none" xmlns="http://www.w3.org/2000/svg">
<rect x="0.5" y="0.5" width="299" height="44" rx="5.5" fill="white"/>
<rect x="0.5" y="0.5" width="299" height="44" rx="5.5" stroke="#C5C5C5"/>
<path fill-rule="evenodd" clip-rule="evenodd" d="M85.64 22.7046C85.64 22.0664 85.5827 21.4527 85.4764 20.8636H77V24.345H81.8436C81.635 25.47 81.0009 26.4232 80.0477 27.0614V29.3196H82.9564C84.6582 27.7527 85.64 25.4455 85.64 22.7046Z" fill="#4285F4"/>
<path fill-rule="evenodd" clip-rule="evenodd" d="M77 31.5C79.43 31.5 81.4673 30.6941 82.9564 29.3196L80.0477 27.0614C79.2418 27.6014 78.2109 27.9205 77 27.9205C74.6559 27.9205 72.6718 26.3373 71.9641 24.21H68.9573V26.5418C70.4382 29.4832 73.4818 31.5 77 31.5Z" fill="#34A853"/>
<path fill-rule="evenodd" clip-rule="evenodd" d="M71.9641 24.21C71.7841 23.67 71.6818 23.0932 71.6818 22.5C71.6818 21.9068 71.7841 21.33 71.9641 20.79V18.4582H68.9573C68.3477 19.6732 68 21.0477 68 22.5C68 23.9523 68.3477 25.3268 68.9573 26.5418L71.9641 24.21Z" fill="#FBBC05"/>
<path fill-rule="evenodd" clip-rule="evenodd" d="M77 17.0795C78.3214 17.0795 79.5077 17.5336 80.4405 18.4255L83.0218 15.8441C81.4632 14.3918 79.4259 13.5 77 13.5C73.4818 13.5 70.4382 15.5168 68.9573 18.4582L71.9641 20.79C72.6718 18.6627 74.6559 17.0795 77 17.0795Z" fill="#EA4335"/>
<path d="M98.128 16.748H106.052V17.686H98.128V16.748ZM96.7 22.18H108.138V23.146H96.7V22.18ZM101.81 22.824H102.972V28.606H101.81V22.824ZM105.492 16.748H106.64V17.854C106.64 18.2927 106.631 18.7547 106.612 19.24C106.603 19.7253 106.565 20.262 106.5 20.85C106.435 21.4287 106.323 22.0727 106.164 22.782L105.002 22.628C105.254 21.6107 105.399 20.7193 105.436 19.954C105.473 19.1887 105.492 18.4887 105.492 17.854V16.748ZM111.035 16.468H119.183V17.406H111.035V16.468ZM109.579 20.64H121.059V21.578H109.579V20.64ZM118.427 16.468H119.575V17.28C119.575 17.728 119.561 18.2553 119.533 18.862C119.505 19.4593 119.407 20.1453 119.239 20.92L118.091 20.794C118.259 20.0287 118.357 19.3613 118.385 18.792C118.413 18.2227 118.427 17.7187 118.427 17.28V16.468ZM110.937 22.838H119.603V26.044H112.113V27.808H110.965V25.148H118.455V23.762H110.937V22.838ZM110.965 27.514H119.925V28.438H110.965V27.514ZM130.858 19.436H133.658V20.388H130.858V19.436ZM130.76 22.614H133.63V23.566H130.76V22.614ZM135.59 15.922H136.71V28.592H135.59V15.922ZM133.042 16.258H134.148V27.948H133.042V16.258ZM130.228 17.532H131.348C131.348 18.6333 131.189 19.6927 130.872 20.71C130.555 21.718 130.046 22.6607 129.346 23.538C128.655 24.406 127.745 25.1807 126.616 25.862L125.93 25.022C126.919 24.4247 127.731 23.7527 128.366 23.006C129.001 22.25 129.467 21.4333 129.766 20.556C130.074 19.6693 130.228 18.7313 130.228 17.742V17.532ZM126.49 17.532H130.676V18.484H126.49V17.532ZM145.585 19.212H148.427V20.178H145.585V19.212ZM148.077 15.922H149.239V23.468H148.077V15.922ZM145.067 23.86C145.944 23.86 146.696 23.9533 147.321 24.14C147.956 24.3267 148.441 24.5973 148.777 24.952C149.113 25.2973 149.281 25.722 149.281 26.226C149.281 26.9727 148.903 27.5513 148.147 27.962C147.4 28.3727 146.374 28.578 145.067 28.578C143.76 28.578 142.729 28.3727 141.973 27.962C141.226 27.5513 140.853 26.9727 140.853 26.226C140.853 25.722 141.021 25.2973 141.357 24.952C141.702 24.5973 142.188 24.3267 142.813 24.14C143.448 23.9533 144.199 23.86 145.067 23.86ZM145.067 24.77C144.432 24.77 143.886 24.826 143.429 24.938C142.972 25.05 142.617 25.2133 142.365 25.428C142.122 25.6427 142.001 25.9087 142.001 26.226C142.001 26.5247 142.122 26.7813 142.365 26.996C142.617 27.2107 142.972 27.3787 143.429 27.5C143.886 27.612 144.432 27.668 145.067 27.668C145.711 27.668 146.257 27.612 146.705 27.5C147.162 27.3787 147.512 27.2107 147.755 26.996C148.007 26.7813 148.133 26.5247 148.133 26.226C148.133 25.9087 148.007 25.6427 147.755 25.428C147.512 25.2133 147.162 25.05 146.705 24.938C146.257 24.826 145.711 24.77 145.067 24.77ZM142.043 17.21H142.995V18.232C142.995 19.0067 142.846 19.7347 142.547 20.416C142.258 21.088 141.847 21.6807 141.315 22.194C140.783 22.698 140.167 23.0853 139.467 23.356L138.865 22.432C139.341 22.264 139.77 22.0353 140.153 21.746C140.545 21.4567 140.881 21.1253 141.161 20.752C141.45 20.3787 141.67 19.9773 141.819 19.548C141.968 19.1187 142.043 18.68 142.043 18.232V17.21ZM142.267 17.21H143.219V18.218C143.219 18.7593 143.345 19.2867 143.597 19.8C143.849 20.3133 144.208 20.766 144.675 21.158C145.142 21.55 145.678 21.858 146.285 22.082L145.697 23.006C145.006 22.754 144.404 22.39 143.891 21.914C143.378 21.4287 142.976 20.8687 142.687 20.234C142.407 19.5993 142.267 18.9273 142.267 18.218V17.21ZM139.229 16.846H145.991V17.798H139.229V16.846ZM157.414 16.734C158.301 16.734 159.089 16.8787 159.78 17.168C160.471 17.4573 161.017 17.8633 161.418 18.386C161.819 18.9087 162.02 19.52 162.02 20.22C162.02 20.9293 161.819 21.5453 161.418 22.068C161.017 22.5907 160.471 22.9967 159.78 23.286C159.089 23.5753 158.301 23.72 157.414 23.72C156.546 23.72 155.762 23.5753 155.062 23.286C154.371 22.9967 153.825 22.5907 153.424 22.068C153.023 21.5453 152.822 20.9293 152.822 20.22C152.822 19.52 153.023 18.9087 153.424 18.386C153.825 17.8633 154.371 17.4573 155.062 17.168C155.762 16.8787 156.546 16.734 157.414 16.734ZM157.414 17.672C156.751 17.672 156.159 17.7793 155.636 17.994C155.113 18.2087 154.698 18.5073 154.39 18.89C154.082 19.2633 153.928 19.7067 153.928 20.22C153.928 20.724 154.082 21.1673 154.39 21.55C154.698 21.9327 155.113 22.2313 155.636 22.446C156.159 22.6607 156.751 22.768 157.414 22.768C158.086 22.768 158.683 22.6607 159.206 22.446C159.729 22.2313 160.139 21.9327 160.438 21.55C160.746 21.1673 160.9 20.724 160.9 20.22C160.9 19.7067 160.746 19.2633 160.438 18.89C160.139 18.5073 159.729 18.2087 159.206 17.994C158.683 17.7793 158.086 17.672 157.414 17.672ZM151.702 25.946H163.182V26.912H151.702V25.946ZM164.581 26.058H176.061V27.024H164.581V26.058ZM169.719 23.356H170.867V26.464H169.719V23.356ZM165.981 16.86H174.633V20.696H167.157V23.23H166.009V19.772H173.485V17.812H165.981V16.86ZM166.009 22.74H174.927V23.692H166.009V22.74ZM185.86 19.436H188.66V20.388H185.86V19.436ZM185.762 22.614H188.632V23.566H185.762V22.614ZM190.592 15.922H191.712V28.592H190.592V15.922ZM188.044 16.258H189.15V27.948H188.044V16.258ZM185.23 17.532H186.35C186.35 18.6333 186.191 19.6927 185.874 20.71C185.557 21.718 185.048 22.6607 184.348 23.538C183.657 24.406 182.747 25.1807 181.618 25.862L180.932 25.022C181.921 24.4247 182.733 23.7527 183.368 23.006C184.003 22.25 184.469 21.4333 184.768 20.556C185.076 19.6693 185.23 18.7313 185.23 17.742V17.532ZM181.492 17.532H185.678V18.484H181.492V17.532ZM193.825 22.278H205.291V23.23H193.825V22.278ZM198.963 20.346H200.111V22.712H198.963V20.346ZM198.949 16.118H199.943V16.692C199.943 17.14 199.854 17.5647 199.677 17.966C199.5 18.3673 199.248 18.736 198.921 19.072C198.604 19.408 198.235 19.7067 197.815 19.968C197.395 20.22 196.942 20.4393 196.457 20.626C195.972 20.8033 195.468 20.934 194.945 21.018L194.511 20.094C194.959 20.0287 195.398 19.926 195.827 19.786C196.266 19.6367 196.672 19.4593 197.045 19.254C197.418 19.0393 197.745 18.7967 198.025 18.526C198.314 18.2553 198.538 17.966 198.697 17.658C198.865 17.35 198.949 17.028 198.949 16.692V16.118ZM199.131 16.118H200.125V16.692C200.125 17.028 200.204 17.35 200.363 17.658C200.522 17.966 200.746 18.2553 201.035 18.526C201.324 18.7873 201.656 19.0253 202.029 19.24C202.402 19.4547 202.804 19.6367 203.233 19.786C203.672 19.926 204.115 20.0287 204.563 20.094L204.115 21.018C203.602 20.934 203.102 20.8033 202.617 20.626C202.141 20.4393 201.688 20.2153 201.259 19.954C200.839 19.6927 200.466 19.3987 200.139 19.072C199.822 18.736 199.574 18.372 199.397 17.98C199.22 17.5787 199.131 17.1493 199.131 16.692V16.118ZM195.099 24.462H203.849V28.592H202.687V25.386H195.099V24.462ZM215.286 15.922H216.434V28.592H215.286V15.922ZM216.168 21.13H218.506V22.11H216.168V21.13ZM206.634 17.952H214.096V18.904H206.634V17.952ZM210.428 19.94C211.025 19.94 211.553 20.066 212.01 20.318C212.477 20.57 212.841 20.9153 213.102 21.354C213.373 21.7833 213.508 22.2827 213.508 22.852C213.508 23.4213 213.373 23.9253 213.102 24.364C212.841 24.8027 212.477 25.148 212.01 25.4C211.553 25.6427 211.025 25.764 210.428 25.764C209.831 25.764 209.299 25.6427 208.832 25.4C208.375 25.148 208.011 24.8027 207.74 24.364C207.469 23.9253 207.334 23.4213 207.334 22.852C207.334 22.2827 207.469 21.7833 207.74 21.354C208.011 20.9153 208.375 20.57 208.832 20.318C209.299 20.066 209.831 19.94 210.428 19.94ZM210.428 20.906C210.045 20.906 209.705 20.99 209.406 21.158C209.107 21.326 208.869 21.5547 208.692 21.844C208.524 22.1333 208.44 22.4693 208.44 22.852C208.44 23.2347 208.524 23.5753 208.692 23.874C208.869 24.1633 209.107 24.392 209.406 24.56C209.705 24.7187 210.045 24.798 210.428 24.798C210.801 24.798 211.137 24.7187 211.436 24.56C211.735 24.392 211.968 24.1633 212.136 23.874C212.313 23.5753 212.402 23.2347 212.402 22.852C212.402 22.4693 212.313 22.1333 212.136 21.844C211.968 21.5547 211.735 21.326 211.436 21.158C211.137 20.99 210.801 20.906 210.428 20.906ZM209.826 16.076H210.988V18.372H209.826V16.076ZM228.809 15.922H229.971V28.592H228.809V15.922ZM225.099 17.294H226.247C226.247 18.2087 226.135 19.0907 225.911 19.94C225.696 20.7893 225.355 21.5967 224.889 22.362C224.422 23.118 223.815 23.8227 223.069 24.476C222.322 25.1293 221.417 25.7127 220.353 26.226L219.737 25.288C220.959 24.7 221.967 24.014 222.761 23.23C223.554 22.446 224.142 21.5733 224.525 20.612C224.907 19.6413 225.099 18.596 225.099 17.476V17.294ZM220.325 17.294H225.589V18.232H220.325V17.294Z" fill="#1F1F1F"/>
</svg>
