<svg width="300" height="45" viewBox="0 0 300 45" fill="none" xmlns="http://www.w3.org/2000/svg">
<rect width="300" height="45" rx="6" fill="#FEE500"/>
<g clip-path="url(#clip0_103_1167)">
<path opacity="0.902" fill-rule="evenodd" clip-rule="evenodd" d="M71.5 14.444C66.79 14.444 62.5 18.23 62.5 21.433C62.5 23.833 64.058 25.95 66.431 27.208L65.433 30.874C65.344 31.199 65.713 31.457 65.996 31.27L70.373 28.365C70.742 28.401 71.118 28.422 71.5 28.422C76.47 28.422 80.5 25.293 80.5 21.433C80.5 18.23 76.47 14.444 71.5 14.444Z" fill="black"/>
</g>
<path d="M94.576 17.238H95.71C95.71 18.1527 95.6213 19.0487 95.444 19.926C95.2667 20.794 94.9633 21.6247 94.534 22.418C94.1047 23.202 93.5167 23.9393 92.77 24.63C92.0233 25.3207 91.0853 25.946 89.956 26.506L89.312 25.61C90.32 25.1153 91.16 24.5693 91.832 23.972C92.504 23.3747 93.0407 22.7307 93.442 22.04C93.8433 21.3493 94.1327 20.612 94.31 19.828C94.4873 19.044 94.576 18.2227 94.576 17.364V17.238ZM90.012 17.238H95.276V18.19H90.012V17.238ZM94.408 20.374V21.284L89.55 21.746L89.368 20.724L94.408 20.374ZM97.768 15.922H98.93V28.578H97.768V15.922ZM98.622 21.06H100.946V22.026H98.622V21.06ZM107.455 17.238H108.589C108.589 18.1527 108.5 19.0487 108.323 19.926C108.146 20.794 107.842 21.6247 107.413 22.418C106.984 23.202 106.396 23.9393 105.649 24.63C104.902 25.3207 103.964 25.946 102.835 26.506L102.191 25.61C103.199 25.1153 104.039 24.5693 104.711 23.972C105.383 23.3747 105.92 22.7307 106.321 22.04C106.722 21.3493 107.012 20.612 107.189 19.828C107.366 19.044 107.455 18.2227 107.455 17.364V17.238ZM102.891 17.238H108.155V18.19H102.891V17.238ZM107.287 20.374V21.284L102.429 21.746L102.247 20.724L107.287 20.374ZM110.647 15.922H111.809V28.578H110.647V15.922ZM111.501 21.06H113.825V22.026H111.501V21.06ZM120.096 23.076H121.244V26.226H120.096V23.076ZM120.67 16.748C121.566 16.748 122.359 16.888 123.05 17.168C123.74 17.4387 124.282 17.8213 124.674 18.316C125.075 18.8107 125.276 19.394 125.276 20.066C125.276 20.738 125.075 21.326 124.674 21.83C124.282 22.3247 123.74 22.7073 123.05 22.978C122.359 23.2487 121.566 23.384 120.67 23.384C119.783 23.384 118.99 23.2487 118.29 22.978C117.599 22.7073 117.058 22.3247 116.666 21.83C116.274 21.326 116.078 20.738 116.078 20.066C116.078 19.394 116.274 18.8107 116.666 18.316C117.058 17.8213 117.599 17.4387 118.29 17.168C118.99 16.888 119.783 16.748 120.67 16.748ZM120.67 17.686C119.998 17.686 119.4 17.784 118.878 17.98C118.355 18.176 117.944 18.456 117.646 18.82C117.347 19.1747 117.198 19.59 117.198 20.066C117.198 20.542 117.347 20.962 117.646 21.326C117.944 21.69 118.355 21.97 118.878 22.166C119.4 22.362 119.998 22.46 120.67 22.46C121.342 22.46 121.939 22.362 122.462 22.166C122.984 21.97 123.395 21.69 123.694 21.326C124.002 20.962 124.156 20.542 124.156 20.066C124.156 19.59 124.002 19.1747 123.694 18.82C123.395 18.456 122.984 18.176 122.462 17.98C121.939 17.784 121.342 17.686 120.67 17.686ZM114.958 26.002H126.438V26.968H114.958V26.002ZM136.237 19.436H139.037V20.388H136.237V19.436ZM136.139 22.614H139.009V23.566H136.139V22.614ZM140.969 15.922H142.089V28.592H140.969V15.922ZM138.421 16.258H139.527V27.948H138.421V16.258ZM135.607 17.532H136.727C136.727 18.6333 136.568 19.6927 136.251 20.71C135.934 21.718 135.425 22.6607 134.725 23.538C134.034 24.406 133.124 25.1807 131.995 25.862L131.309 25.022C132.298 24.4247 133.11 23.7527 133.745 23.006C134.38 22.25 134.846 21.4333 135.145 20.556C135.453 19.6693 135.607 18.7313 135.607 17.742V17.532ZM131.869 17.532H136.055V18.484H131.869V17.532ZM150.964 19.212H153.806V20.178H150.964V19.212ZM153.456 15.922H154.618V23.468H153.456V15.922ZM150.446 23.86C151.323 23.86 152.075 23.9533 152.7 24.14C153.335 24.3267 153.82 24.5973 154.156 24.952C154.492 25.2973 154.66 25.722 154.66 26.226C154.66 26.9727 154.282 27.5513 153.526 27.962C152.779 28.3727 151.753 28.578 150.446 28.578C149.139 28.578 148.108 28.3727 147.352 27.962C146.605 27.5513 146.232 26.9727 146.232 26.226C146.232 25.722 146.4 25.2973 146.736 24.952C147.081 24.5973 147.567 24.3267 148.192 24.14C148.827 23.9533 149.578 23.86 150.446 23.86ZM150.446 24.77C149.811 24.77 149.265 24.826 148.808 24.938C148.351 25.05 147.996 25.2133 147.744 25.428C147.501 25.6427 147.38 25.9087 147.38 26.226C147.38 26.5247 147.501 26.7813 147.744 26.996C147.996 27.2107 148.351 27.3787 148.808 27.5C149.265 27.612 149.811 27.668 150.446 27.668C151.09 27.668 151.636 27.612 152.084 27.5C152.541 27.3787 152.891 27.2107 153.134 26.996C153.386 26.7813 153.512 26.5247 153.512 26.226C153.512 25.9087 153.386 25.6427 153.134 25.428C152.891 25.2133 152.541 25.05 152.084 24.938C151.636 24.826 151.09 24.77 150.446 24.77ZM147.422 17.21H148.374V18.232C148.374 19.0067 148.225 19.7347 147.926 20.416C147.637 21.088 147.226 21.6807 146.694 22.194C146.162 22.698 145.546 23.0853 144.846 23.356L144.244 22.432C144.72 22.264 145.149 22.0353 145.532 21.746C145.924 21.4567 146.26 21.1253 146.54 20.752C146.829 20.3787 147.049 19.9773 147.198 19.548C147.347 19.1187 147.422 18.68 147.422 18.232V17.21ZM147.646 17.21H148.598V18.218C148.598 18.7593 148.724 19.2867 148.976 19.8C149.228 20.3133 149.587 20.766 150.054 21.158C150.521 21.55 151.057 21.858 151.664 22.082L151.076 23.006C150.385 22.754 149.783 22.39 149.27 21.914C148.757 21.4287 148.355 20.8687 148.066 20.234C147.786 19.5993 147.646 18.9273 147.646 18.218V17.21ZM144.608 16.846H151.37V17.798H144.608V16.846ZM162.793 16.734C163.68 16.734 164.468 16.8787 165.159 17.168C165.85 17.4573 166.396 17.8633 166.797 18.386C167.198 18.9087 167.399 19.52 167.399 20.22C167.399 20.9293 167.198 21.5453 166.797 22.068C166.396 22.5907 165.85 22.9967 165.159 23.286C164.468 23.5753 163.68 23.72 162.793 23.72C161.925 23.72 161.141 23.5753 160.441 23.286C159.75 22.9967 159.204 22.5907 158.803 22.068C158.402 21.5453 158.201 20.9293 158.201 20.22C158.201 19.52 158.402 18.9087 158.803 18.386C159.204 17.8633 159.75 17.4573 160.441 17.168C161.141 16.8787 161.925 16.734 162.793 16.734ZM162.793 17.672C162.13 17.672 161.538 17.7793 161.015 17.994C160.492 18.2087 160.077 18.5073 159.769 18.89C159.461 19.2633 159.307 19.7067 159.307 20.22C159.307 20.724 159.461 21.1673 159.769 21.55C160.077 21.9327 160.492 22.2313 161.015 22.446C161.538 22.6607 162.13 22.768 162.793 22.768C163.465 22.768 164.062 22.6607 164.585 22.446C165.108 22.2313 165.518 21.9327 165.817 21.55C166.125 21.1673 166.279 20.724 166.279 20.22C166.279 19.7067 166.125 19.2633 165.817 18.89C165.518 18.5073 165.108 18.2087 164.585 17.994C164.062 17.7793 163.465 17.672 162.793 17.672ZM157.081 25.946H168.561V26.912H157.081V25.946ZM169.96 26.058H181.44V27.024H169.96V26.058ZM175.098 23.356H176.246V26.464H175.098V23.356ZM171.36 16.86H180.012V20.696H172.536V23.23H171.388V19.772H178.864V17.812H171.36V16.86ZM171.388 22.74H180.306V23.692H171.388V22.74ZM191.239 19.436H194.039V20.388H191.239V19.436ZM191.141 22.614H194.011V23.566H191.141V22.614ZM195.971 15.922H197.091V28.592H195.971V15.922ZM193.423 16.258H194.529V27.948H193.423V16.258ZM190.609 17.532H191.729C191.729 18.6333 191.57 19.6927 191.253 20.71C190.936 21.718 190.427 22.6607 189.727 23.538C189.036 24.406 188.126 25.1807 186.997 25.862L186.311 25.022C187.3 24.4247 188.112 23.7527 188.747 23.006C189.382 22.25 189.848 21.4333 190.147 20.556C190.455 19.6693 190.609 18.7313 190.609 17.742V17.532ZM186.871 17.532H191.057V18.484H186.871V17.532ZM199.204 22.278H210.67V23.23H199.204V22.278ZM204.342 20.346H205.49V22.712H204.342V20.346ZM204.328 16.118H205.322V16.692C205.322 17.14 205.233 17.5647 205.056 17.966C204.879 18.3673 204.627 18.736 204.3 19.072C203.983 19.408 203.614 19.7067 203.194 19.968C202.774 20.22 202.321 20.4393 201.836 20.626C201.351 20.8033 200.847 20.934 200.324 21.018L199.89 20.094C200.338 20.0287 200.777 19.926 201.206 19.786C201.645 19.6367 202.051 19.4593 202.424 19.254C202.797 19.0393 203.124 18.7967 203.404 18.526C203.693 18.2553 203.917 17.966 204.076 17.658C204.244 17.35 204.328 17.028 204.328 16.692V16.118ZM204.51 16.118H205.504V16.692C205.504 17.028 205.583 17.35 205.742 17.658C205.901 17.966 206.125 18.2553 206.414 18.526C206.703 18.7873 207.035 19.0253 207.408 19.24C207.781 19.4547 208.183 19.6367 208.612 19.786C209.051 19.926 209.494 20.0287 209.942 20.094L209.494 21.018C208.981 20.934 208.481 20.8033 207.996 20.626C207.52 20.4393 207.067 20.2153 206.638 19.954C206.218 19.6927 205.845 19.3987 205.518 19.072C205.201 18.736 204.953 18.372 204.776 17.98C204.599 17.5787 204.51 17.1493 204.51 16.692V16.118ZM200.478 24.462H209.228V28.592H208.066V25.386H200.478V24.462ZM220.665 15.922H221.813V28.592H220.665V15.922ZM221.547 21.13H223.885V22.11H221.547V21.13ZM212.013 17.952H219.475V18.904H212.013V17.952ZM215.807 19.94C216.404 19.94 216.931 20.066 217.389 20.318C217.855 20.57 218.219 20.9153 218.481 21.354C218.751 21.7833 218.887 22.2827 218.887 22.852C218.887 23.4213 218.751 23.9253 218.481 24.364C218.219 24.8027 217.855 25.148 217.389 25.4C216.931 25.6427 216.404 25.764 215.807 25.764C215.209 25.764 214.677 25.6427 214.211 25.4C213.753 25.148 213.389 24.8027 213.119 24.364C212.848 23.9253 212.713 23.4213 212.713 22.852C212.713 22.2827 212.848 21.7833 213.119 21.354C213.389 20.9153 213.753 20.57 214.211 20.318C214.677 20.066 215.209 19.94 215.807 19.94ZM215.807 20.906C215.424 20.906 215.083 20.99 214.785 21.158C214.486 21.326 214.248 21.5547 214.071 21.844C213.903 22.1333 213.819 22.4693 213.819 22.852C213.819 23.2347 213.903 23.5753 214.071 23.874C214.248 24.1633 214.486 24.392 214.785 24.56C215.083 24.7187 215.424 24.798 215.807 24.798C216.18 24.798 216.516 24.7187 216.815 24.56C217.113 24.392 217.347 24.1633 217.515 23.874C217.692 23.5753 217.781 23.2347 217.781 22.852C217.781 22.4693 217.692 22.1333 217.515 21.844C217.347 21.5547 217.113 21.326 216.815 21.158C216.516 20.99 216.18 20.906 215.807 20.906ZM215.205 16.076H216.367V18.372H215.205V16.076ZM234.188 15.922H235.35V28.592H234.188V15.922ZM230.478 17.294H231.626C231.626 18.2087 231.514 19.0907 231.29 19.94C231.075 20.7893 230.734 21.5967 230.268 22.362C229.801 23.118 229.194 23.8227 228.448 24.476C227.701 25.1293 226.796 25.7127 225.732 26.226L225.116 25.288C226.338 24.7 227.346 24.014 228.14 23.23C228.933 22.446 229.521 21.5733 229.904 20.612C230.286 19.6413 230.478 18.596 230.478 17.476V17.294ZM225.704 17.294H230.968V18.232H225.704V17.294Z" fill="black"/>
<defs>
<clipPath id="clip0_103_1167">
<rect width="18" height="18" fill="white" transform="translate(62.5 13.5)"/>
</clipPath>
</defs>
</svg>
