<svg xmlns="http://www.w3.org/2000/svg" xmlns:xlink="http://www.w3.org/1999/xlink" fill="none" version="1.1" width="52" height="63" viewBox="0 0 52 63"><defs><filter id="master_svg0_85_6055" filterUnits="objectBoundingBox" color-interpolation-filters="sRGB" x="-0.9090909090909091" y="-0.48484848484848486" width="2.8181818181818183" height="2.212121212121212"><feFlood flood-opacity="0" result="BackgroundImageFix"/><feColorMatrix in="SourceAlpha" type="matrix" values="0 0 0 0 0 0 0 0 0 0 0 0 0 0 0 0 0 0 127 0"/><feOffset dy="4" dx="0"/><feGaussianBlur stdDeviation="5"/><feColorMatrix type="matrix" values="0 0 0 0 0 0 0 0 0 0 0 0 0 0 0 0 0 0 0.30000001192092896 0"/><feBlend mode="normal" in2="BackgroundImageFix" result="effect1_dropShadow"/><feBlend mode="normal" in="SourceGraphic" in2="effect1_dropShadow" result="shape"/></filter><clipPath id="master_svg1_85_6055"><rect x="15" y="11" width="22" height="33" rx="0"/></clipPath></defs><g><rect x="15" y="8" width="22" height="36" rx="0" fill="#000000" fill-opacity="0" style="mix-blend-mode:passthrough"/><g filter="url(#master_svg0_85_6055)"><g clip-path="url(#master_svg1_85_6055)"><g transform="matrix(1,0,0,-1,0,88)"><g><path d="M27.375,44.774951Q28.9219,46.90607,31.1562,50.5225Q33.3906,54.0744,35.1667,57.8845Q36.885400000000004,61.6947,37,64.60079999999999Q36.885400000000004,69.8963,33.7917,73.3836Q30.6979,76.8708,26,77Q21.30208,76.8708,18.20833,73.3836Q15.114583,69.8963,15,64.60079999999999Q15.114583,61.6947,16.83333,57.8845Q18.60938,54.0744,20.84375,50.5225Q23.07812,46.90607,24.625,44.774951Q25.1979,44,26,44Q26.8021,44,27.375,44.774951ZM26,68.7339Q28.0625,68.66929999999999,29.151,66.6673Q30.182299999999998,64.60079999999999,29.151,62.5342Q28.0625,60.5323,26,60.4677Q23.9375,60.5323,22.848959999999998,62.5342Q21.817709999999998,64.60079999999999,22.848959999999998,66.6673Q23.9375,68.66929999999999,26,68.7339Z" fill="#EF4444" fill-opacity="1" style="mix-blend-mode:passthrough"/></g></g><g><ellipse cx="26" cy="23" rx="6" ry="6" fill="#FFFFFF" fill-opacity="1"/></g></g></g></g></svg>