<svg xmlns="http://www.w3.org/2000/svg" fill="none" version="1.1" width="25" height="37" viewBox="-1.5 -0.5 25 35"><ellipse cx="11" cy="34.23552343749999" rx="2.5" ry="0.75" fill="#cccccc" opacity="1" /><defs><filter id="glow" x="-50%" y="-50%" width="200%" height="200%">
  <feGaussianBlur stdDeviation="3" result="coloredBlur" />
  <feMerge>
    <feMergeNode in="coloredBlur" />
    <feMergeNode in="SourceGraphic" />
  </feMerge>
</filter></defs><g clip-path="url(#master_svg0_85_6008)"><g transform="matrix(1,0,0,-1,0,65.87109375)"><g><path d="M12.375,33.708984875Q13.9219,35.835936875,16.1562,39.445316875Q18.3906,42.990246875,20.1667,46.792946875Q21.8854,50.595746875,22,53.496046875000005Q21.8854,58.781246875,18.7917,62.261746875Q15.6979,65.742146875,11,65.87104687499999Q6.30208,65.742146875,3.20833,62.261746875Q0.114583,58.781246875,0,53.496046875000005Q0.114583,50.595746875,1.83333,46.792946875Q3.60938,42.990246875,5.84375,39.445316875Q8.07812,35.835936875,9.625,33.708984875Q10.1979,32.935546875,11,32.935546875Q11.8021,32.935546875,12.375,33.708984875ZM11,57.621046875000005Q13.0625,57.556646875,14.151,55.558546875000005Q15.1823,53.496046875000005,14.151,51.433546875000005Q13.0625,49.435546875,11,49.371046875000005Q8.9375,49.435546875,7.84896,51.433546875000005Q6.81771,53.496046875000005,7.84896,55.558546875000005Q8.9375,57.556646875,11,57.621046875000005Z" fill="#FE5BCD" fill-opacity="1" style="mix-blend-mode:passthrough" /></g></g><g><path d="M13.7,6C15.5228,6,17,7.6875,17,10.05C17,14.775,12.5,17.475,11,18.4875C9.5,17.475,5,14.775,5,10.05C5,7.6875,6.5,6,8.3,6C9.416,6,10.4,6.675,11,7.35C11.6,6.675,12.584,6,13.7,6Z" fill="#FFFFFF" fill-opacity="1" style="mix-blend-mode:passthrough" /></g><g clip-path="url(#master_svg1_85_5872)" /></g><g clip-path="url(#master_svg0_85_6008)"><g transform="matrix(1,0,0,-1,0,65.87109375)"><g><path d="M12.375,33.708984875Q13.9219,35.835936875,16.1562,39.445316875Q18.3906,42.990246875,20.1667,46.792946875Q21.8854,50.595746875,22,53.496046875000005Q21.8854,58.781246875,18.7917,62.261746875Q15.6979,65.742146875,11,65.87104687499999Q6.30208,65.742146875,3.20833,62.261746875Q0.114583,58.781246875,0,53.496046875000005Q0.114583,50.595746875,1.83333,46.792946875Q3.60938,42.990246875,5.84375,39.445316875Q8.07812,35.835936875,9.625,33.708984875Q10.1979,32.935546875,11,32.935546875Q11.8021,32.935546875,12.375,33.708984875ZM11,57.621046875000005Q13.0625,57.556646875,14.151,55.558546875000005Q15.1823,53.496046875000005,14.151,51.433546875000005Q13.0625,49.435546875,11,49.371046875000005Q8.9375,49.435546875,7.84896,51.433546875000005Q6.81771,53.496046875000005,7.84896,55.558546875000005Q8.9375,57.556646875,11,57.621046875000005Z" fill="#FE5BCD" fill-opacity="1" style="mix-blend-mode:passthrough" /></g></g><g><path d="M13.7,6C15.5228,6,17,7.6875,17,10.05C17,14.775,12.5,17.475,11,18.4875C9.5,17.475,5,14.775,5,10.05C5,7.6875,6.5,6,8.3,6C9.416,6,10.4,6.675,11,7.35C11.6,6.675,12.584,6,13.7,6Z" fill="#FFFFFF" fill-opacity="1" style="mix-blend-mode:passthrough" /></g><g clip-path="url(#master_svg1_85_5872)" /></g><g clip-path="url(#master_svg0_85_6008)"><g transform="matrix(1,0,0,-1,0,65.87109375)"><g><path d="M12.375,33.708984875Q13.9219,35.835936875,16.1562,39.445316875Q18.3906,42.990246875,20.1667,46.792946875Q21.8854,50.595746875,22,53.496046875000005Q21.8854,58.781246875,18.7917,62.261746875Q15.6979,65.742146875,11,65.87104687499999Q6.30208,65.742146875,3.20833,62.261746875Q0.114583,58.781246875,0,53.496046875000005Q0.114583,50.595746875,1.83333,46.792946875Q3.60938,42.990246875,5.84375,39.445316875Q8.07812,35.835936875,9.625,33.708984875Q10.1979,32.935546875,11,32.935546875Q11.8021,32.935546875,12.375,33.708984875ZM11,57.621046875000005Q13.0625,57.556646875,14.151,55.558546875000005Q15.1823,53.496046875000005,14.151,51.433546875000005Q13.0625,49.435546875,11,49.371046875000005Q8.9375,49.435546875,7.84896,51.433546875000005Q6.81771,53.496046875000005,7.84896,55.558546875000005Q8.9375,57.556646875,11,57.621046875000005Z" fill="#FE5BCD" fill-opacity="1" style="mix-blend-mode:passthrough" /></g></g><g><path d="M13.7,6C15.5228,6,17,7.6875,17,10.05C17,14.775,12.5,17.475,11,18.4875C9.5,17.475,5,14.775,5,10.05C5,7.6875,6.5,6,8.3,6C9.416,6,10.4,6.675,11,7.35C11.6,6.675,12.584,6,13.7,6Z" fill="#FFFFFF" fill-opacity="1" style="mix-blend-mode:passthrough" /></g><g clip-path="url(#master_svg1_85_5872)" /></g><g stroke="#cccccc" stroke-width="3" fill="none" opacity="0.25"><g clip-path="url(#master_svg0_85_6008)"><g transform="matrix(1,0,0,-1,0,65.87109375)"><g><path d="M12.375,33.708984875Q13.9219,35.835936875,16.1562,39.445316875Q18.3906,42.990246875,20.1667,46.792946875Q21.8854,50.595746875,22,53.496046875000005Q21.8854,58.781246875,18.7917,62.261746875Q15.6979,65.742146875,11,65.87104687499999Q6.30208,65.742146875,3.20833,62.261746875Q0.114583,58.781246875,0,53.496046875000005Q0.114583,50.595746875,1.83333,46.792946875Q3.60938,42.990246875,5.84375,39.445316875Q8.07812,35.835936875,9.625,33.708984875Q10.1979,32.935546875,11,32.935546875Q11.8021,32.935546875,12.375,33.708984875ZM11,57.621046875000005Q13.0625,57.556646875,14.151,55.558546875000005Q15.1823,53.496046875000005,14.151,51.433546875000005Q13.0625,49.435546875,11,49.371046875000005Q8.9375,49.435546875,7.84896,51.433546875000005Q6.81771,53.496046875000005,7.84896,55.558546875000005Q8.9375,57.556646875,11,57.621046875000005Z" fill="#FE5BCD" fill-opacity="1" style="mix-blend-mode:passthrough" /></g></g><g><path d="M13.7,6C15.5228,6,17,7.6875,17,10.05C17,14.775,12.5,17.475,11,18.4875C9.5,17.475,5,14.775,5,10.05C5,7.6875,6.5,6,8.3,6C9.416,6,10.4,6.675,11,7.35C11.6,6.675,12.584,6,13.7,6Z" fill="#FFFFFF" fill-opacity="1" style="mix-blend-mode:passthrough" /></g><g clip-path="url(#master_svg1_85_5872)" /></g></g><g stroke="white" stroke-width="1.5" fill="none"><g clip-path="url(#master_svg0_85_6008)"><g transform="matrix(1,0,0,-1,0,65.87109375)"><g><path d="M12.375,33.708984875Q13.9219,35.835936875,16.1562,39.445316875Q18.3906,42.990246875,20.1667,46.792946875Q21.8854,50.595746875,22,53.496046875000005Q21.8854,58.781246875,18.7917,62.261746875Q15.6979,65.742146875,11,65.87104687499999Q6.30208,65.742146875,3.20833,62.261746875Q0.114583,58.781246875,0,53.496046875000005Q0.114583,50.595746875,1.83333,46.792946875Q3.60938,42.990246875,5.84375,39.445316875Q8.07812,35.835936875,9.625,33.708984875Q10.1979,32.935546875,11,32.935546875Q11.8021,32.935546875,12.375,33.708984875ZM11,57.621046875000005Q13.0625,57.556646875,14.151,55.558546875000005Q15.1823,53.496046875000005,14.151,51.433546875000005Q13.0625,49.435546875,11,49.371046875000005Q8.9375,49.435546875,7.84896,51.433546875000005Q6.81771,53.496046875000005,7.84896,55.558546875000005Q8.9375,57.556646875,11,57.621046875000005Z" fill="#FE5BCD" fill-opacity="1" style="mix-blend-mode:passthrough" /></g></g><g><path d="M13.7,6C15.5228,6,17,7.6875,17,10.05C17,14.775,12.5,17.475,11,18.4875C9.5,17.475,5,14.775,5,10.05C5,7.6875,6.5,6,8.3,6C9.416,6,10.4,6.675,11,7.35C11.6,6.675,12.584,6,13.7,6Z" fill="#FFFFFF" fill-opacity="1" style="mix-blend-mode:passthrough" /></g><g clip-path="url(#master_svg1_85_5872)" /></g></g><g clip-path="url(#master_svg0_85_6008)"><g transform="matrix(1,0,0,-1,0,65.87109375)"><g><path d="M12.375,33.708984875Q13.9219,35.835936875,16.1562,39.445316875Q18.3906,42.990246875,20.1667,46.792946875Q21.8854,50.595746875,22,53.496046875000005Q21.8854,58.781246875,18.7917,62.261746875Q15.6979,65.742146875,11,65.87104687499999Q6.30208,65.742146875,3.20833,62.261746875Q0.114583,58.781246875,0,53.496046875000005Q0.114583,50.595746875,1.83333,46.792946875Q3.60938,42.990246875,5.84375,39.445316875Q8.07812,35.835936875,9.625,33.708984875Q10.1979,32.935546875,11,32.935546875Q11.8021,32.935546875,12.375,33.708984875ZM11,57.621046875000005Q13.0625,57.556646875,14.151,55.558546875000005Q15.1823,53.496046875000005,14.151,51.433546875000005Q13.0625,49.435546875,11,49.371046875000005Q8.9375,49.435546875,7.84896,51.433546875000005Q6.81771,53.496046875000005,7.84896,55.558546875000005Q8.9375,57.556646875,11,57.621046875000005Z" fill="#FE5BCD" fill-opacity="1" style="mix-blend-mode:passthrough" /></g></g><g><path d="M13.7,6C15.5228,6,17,7.6875,17,10.05C17,14.775,12.5,17.475,11,18.4875C9.5,17.475,5,14.775,5,10.05C5,7.6875,6.5,6,8.3,6C9.416,6,10.4,6.675,11,7.35C11.6,6.675,12.584,6,13.7,6Z" fill="#FFFFFF" fill-opacity="1" style="mix-blend-mode:passthrough" /></g><g clip-path="url(#master_svg1_85_5872)" /></g><g transform="matrix(1,0,0,-1,0,66)"><g><path d="M12.375,33.774951Q13.9219,35.90607,16.1562,39.5225Q18.3906,43.0744,20.1667,46.8845Q21.8854,50.6947,22,53.6008Q21.8854,58.8963,18.7917,62.3836Q15.6979,65.8708,11,66Q6.30208,65.8708,3.20833,62.3836Q0.114583,58.8963,0,53.6008Q0.114583,50.6947,1.83333,46.8845Q3.60938,43.0744,5.84375,39.5225Q8.07812,35.90607,9.625,33.774951Q10.1979,33,11,33Q11.8021,33,12.375,33.774951ZM11,57.7339Q13.0625,57.6693,14.151,55.6673Q15.1823,53.6008,14.151,51.5342Q13.0625,49.5323,11,49.4677Q8.9375,49.5323,7.84896,51.5342Q6.81771,53.6008,7.84896,55.6673Q8.9375,57.6693,11,57.7339Z" fill="#0F3891" fill-opacity="1" style="mix-blend-mode:passthrough" /></g><g transform="matrix(1,0,0,-1,0,120)"><ellipse cx="11" cy="66" rx="6" ry="6" fill="#FFFFFF" fill-opacity="1" /></g></g></svg>