<svg xmlns="http://www.w3.org/2000/svg" xmlns:xlink="http://www.w3.org/1999/xlink" fill="none" version="1.1" width="52" height="62.935546875" viewBox="0 0 52 62.935546875"><defs><filter id="master_svg0_85_6008" filterUnits="objectBoundingBox" color-interpolation-filters="sRGB" x="-0.9090909090909091" y="-0.48484848484848486" width="2.8181818181818183" height="2.212121212121212"><feFlood flood-opacity="0" result="BackgroundImageFix"/><feColorMatrix in="SourceAlpha" type="matrix" values="0 0 0 0 0 0 0 0 0 0 0 0 0 0 0 0 0 0 127 0"/><feOffset dy="4" dx="0"/><feGaussianBlur stdDeviation="5"/><feColorMatrix type="matrix" values="0 0 0 0 0 0 0 0 0 0 0 0 0 0 0 0 0 0 0.30000001192092896 0"/><feBlend mode="normal" in2="BackgroundImageFix" result="effect1_dropShadow"/><feBlend mode="normal" in="SourceGraphic" in2="effect1_dropShadow" result="shape"/></filter><clipPath id="master_svg1_85_6008"><rect x="15" y="11" width="22" height="33" rx="0"/></clipPath><clipPath id="master_svg2_85_5872"><rect x="19" y="16" width="14" height="14" rx="0"/></clipPath></defs><g><rect x="15" y="8" width="22" height="36" rx="0" fill="#000000" fill-opacity="0" style="mix-blend-mode:passthrough"/><g filter="url(#master_svg0_85_6008)"><g clip-path="url(#master_svg1_85_6008)"><g transform="matrix(1,0,0,-1,0,87.87109375)"><g><path d="M27.375,44.708984875Q28.9219,46.835936875,31.1562,50.445316875Q33.3906,53.990246875,35.1667,57.792946875Q36.885400000000004,61.595746875,37,64.496046875Q36.885400000000004,69.781246875,33.7917,73.261746875Q30.6979,76.742146875,26,76.87104687499999Q21.30208,76.742146875,18.20833,73.261746875Q15.114583,69.781246875,15,64.496046875Q15.114583,61.595746875,16.83333,57.792946875Q18.60938,53.990246875,20.84375,50.445316875Q23.07812,46.835936875,24.625,44.708984875Q25.1979,43.935546875,26,43.935546875Q26.8021,43.935546875,27.375,44.708984875ZM26,68.621046875Q28.0625,68.556646875,29.151,66.558546875Q30.182299999999998,64.496046875,29.151,62.433546875000005Q28.0625,60.435546875,26,60.371046875000005Q23.9375,60.435546875,22.848959999999998,62.433546875000005Q21.817709999999998,64.496046875,22.848959999999998,66.558546875Q23.9375,68.556646875,26,68.621046875Z" fill="#FE5BCD" fill-opacity="1" style="mix-blend-mode:passthrough"/></g></g><g><path d="M28.7,17C30.5228,17,32,18.6875,32,21.05C32,25.775,27.5,28.475,26,29.4875C24.5,28.475,20,25.775,20,21.05C20,18.6875,21.5,17,23.3,17C24.416,17,25.4,17.675,26,18.35C26.6,17.675,27.584,17,28.7,17Z" fill="#FFFFFF" fill-opacity="1" style="mix-blend-mode:passthrough"/></g><g clip-path="url(#master_svg2_85_5872)"></g></g></g></g></svg>