<svg width="300" height="45" viewBox="0 0 300 45" fill="none" xmlns="http://www.w3.org/2000/svg">
<rect width="300" height="45" rx="6" fill="#03C75A"/>
<path d="M89.4817 17.28H90.6437V24.7H89.4817V17.28ZM89.4817 24.378H90.2937C91.031 24.378 91.7544 24.3547 92.4637 24.308C93.1824 24.252 93.9384 24.14 94.7317 23.972L94.8997 24.966C94.069 25.1433 93.285 25.26 92.5477 25.316C91.8197 25.3627 91.0684 25.386 90.2937 25.386H89.4817V24.378ZM98.5257 15.922H99.6457V28.592H98.5257V15.922ZM93.0097 20.178H96.1597V21.13H93.0097V20.178ZM95.8377 16.23H96.9437V27.948H95.8377V16.23ZM110.957 15.922H112.119V28.606H110.957V15.922ZM105.441 16.902C106.066 16.902 106.617 17.084 107.093 17.448C107.578 17.8027 107.956 18.3113 108.227 18.974C108.507 19.6367 108.647 20.416 108.647 21.312C108.647 22.208 108.507 22.9873 108.227 23.65C107.956 24.3127 107.578 24.826 107.093 25.19C106.617 25.554 106.066 25.736 105.441 25.736C104.815 25.736 104.26 25.554 103.775 25.19C103.289 24.826 102.907 24.3127 102.627 23.65C102.356 22.9873 102.221 22.208 102.221 21.312C102.221 20.416 102.356 19.6367 102.627 18.974C102.907 18.3113 103.289 17.8027 103.775 17.448C104.26 17.084 104.815 16.902 105.441 16.902ZM105.441 17.938C105.021 17.938 104.652 18.078 104.335 18.358C104.027 18.6287 103.784 19.0207 103.607 19.534C103.429 20.038 103.341 20.6307 103.341 21.312C103.341 21.9933 103.429 22.5907 103.607 23.104C103.784 23.608 104.027 24 104.335 24.28C104.652 24.56 105.021 24.7 105.441 24.7C105.851 24.7 106.211 24.56 106.519 24.28C106.836 24 107.083 23.608 107.261 23.104C107.438 22.5907 107.527 21.9933 107.527 21.312C107.527 20.6307 107.438 20.038 107.261 19.534C107.083 19.0207 106.836 18.6287 106.519 18.358C106.211 18.078 105.851 17.938 105.441 17.938ZM123.906 15.922H125.054V28.606H123.906V15.922ZM120.574 20.626H124.242V21.578H120.574V20.626ZM115.142 16.916H116.304V20.206H119.818V16.916H120.952V25.414H115.142V16.916ZM116.304 21.13V24.462H119.818V21.13H116.304ZM135.917 19.436H138.717V20.388H135.917V19.436ZM135.819 22.614H138.689V23.566H135.819V22.614ZM140.649 15.922H141.769V28.592H140.649V15.922ZM138.101 16.258H139.207V27.948H138.101V16.258ZM135.287 17.532H136.407C136.407 18.6333 136.248 19.6927 135.931 20.71C135.613 21.718 135.105 22.6607 134.405 23.538C133.714 24.406 132.804 25.1807 131.675 25.862L130.989 25.022C131.978 24.4247 132.79 23.7527 133.425 23.006C134.059 22.25 134.526 21.4333 134.825 20.556C135.133 19.6693 135.287 18.7313 135.287 17.742V17.532ZM131.549 17.532H135.735V18.484H131.549V17.532ZM150.644 19.212H153.486V20.178H150.644V19.212ZM153.136 15.922H154.298V23.468H153.136V15.922ZM150.126 23.86C151.003 23.86 151.754 23.9533 152.38 24.14C153.014 24.3267 153.5 24.5973 153.836 24.952C154.172 25.2973 154.34 25.722 154.34 26.226C154.34 26.9727 153.962 27.5513 153.206 27.962C152.459 28.3727 151.432 28.578 150.126 28.578C148.819 28.578 147.788 28.3727 147.032 27.962C146.285 27.5513 145.912 26.9727 145.912 26.226C145.912 25.722 146.08 25.2973 146.416 24.952C146.761 24.5973 147.246 24.3267 147.872 24.14C148.506 23.9533 149.258 23.86 150.126 23.86ZM150.126 24.77C149.491 24.77 148.945 24.826 148.488 24.938C148.03 25.05 147.676 25.2133 147.424 25.428C147.181 25.6427 147.06 25.9087 147.06 26.226C147.06 26.5247 147.181 26.7813 147.424 26.996C147.676 27.2107 148.03 27.3787 148.488 27.5C148.945 27.612 149.491 27.668 150.126 27.668C150.77 27.668 151.316 27.612 151.764 27.5C152.221 27.3787 152.571 27.2107 152.814 26.996C153.066 26.7813 153.192 26.5247 153.192 26.226C153.192 25.9087 153.066 25.6427 152.814 25.428C152.571 25.2133 152.221 25.05 151.764 24.938C151.316 24.826 150.77 24.77 150.126 24.77ZM147.102 17.21H148.054V18.232C148.054 19.0067 147.904 19.7347 147.606 20.416C147.316 21.088 146.906 21.6807 146.374 22.194C145.842 22.698 145.226 23.0853 144.526 23.356L143.924 22.432C144.4 22.264 144.829 22.0353 145.212 21.746C145.604 21.4567 145.94 21.1253 146.22 20.752C146.509 20.3787 146.728 19.9773 146.878 19.548C147.027 19.1187 147.102 18.68 147.102 18.232V17.21ZM147.326 17.21H148.278V18.218C148.278 18.7593 148.404 19.2867 148.656 19.8C148.908 20.3133 149.267 20.766 149.734 21.158C150.2 21.55 150.737 21.858 151.344 22.082L150.756 23.006C150.065 22.754 149.463 22.39 148.95 21.914C148.436 21.4287 148.035 20.8687 147.746 20.234C147.466 19.5993 147.326 18.9273 147.326 18.218V17.21ZM144.288 16.846H151.05V17.798H144.288V16.846ZM162.473 16.734C163.359 16.734 164.148 16.8787 164.839 17.168C165.529 17.4573 166.075 17.8633 166.477 18.386C166.878 18.9087 167.079 19.52 167.079 20.22C167.079 20.9293 166.878 21.5453 166.477 22.068C166.075 22.5907 165.529 22.9967 164.839 23.286C164.148 23.5753 163.359 23.72 162.473 23.72C161.605 23.72 160.821 23.5753 160.121 23.286C159.43 22.9967 158.884 22.5907 158.483 22.068C158.081 21.5453 157.881 20.9293 157.881 20.22C157.881 19.52 158.081 18.9087 158.483 18.386C158.884 17.8633 159.43 17.4573 160.121 17.168C160.821 16.8787 161.605 16.734 162.473 16.734ZM162.473 17.672C161.81 17.672 161.217 17.7793 160.695 17.994C160.172 18.2087 159.757 18.5073 159.449 18.89C159.141 19.2633 158.987 19.7067 158.987 20.22C158.987 20.724 159.141 21.1673 159.449 21.55C159.757 21.9327 160.172 22.2313 160.695 22.446C161.217 22.6607 161.81 22.768 162.473 22.768C163.145 22.768 163.742 22.6607 164.265 22.446C164.787 22.2313 165.198 21.9327 165.497 21.55C165.805 21.1673 165.959 20.724 165.959 20.22C165.959 19.7067 165.805 19.2633 165.497 18.89C165.198 18.5073 164.787 18.2087 164.265 17.994C163.742 17.7793 163.145 17.672 162.473 17.672ZM156.761 25.946H168.241V26.912H156.761V25.946ZM169.639 26.058H181.119V27.024H169.639V26.058ZM174.777 23.356H175.925V26.464H174.777V23.356ZM171.039 16.86H179.691V20.696H172.215V23.23H171.067V19.772H178.543V17.812H171.039V16.86ZM171.067 22.74H179.985V23.692H171.067V22.74ZM190.919 19.436H193.719V20.388H190.919V19.436ZM190.821 22.614H193.691V23.566H190.821V22.614ZM195.651 15.922H196.771V28.592H195.651V15.922ZM193.103 16.258H194.209V27.948H193.103V16.258ZM190.289 17.532H191.409C191.409 18.6333 191.25 19.6927 190.933 20.71C190.615 21.718 190.107 22.6607 189.407 23.538C188.716 24.406 187.806 25.1807 186.677 25.862L185.991 25.022C186.98 24.4247 187.792 23.7527 188.427 23.006C189.061 22.25 189.528 21.4333 189.827 20.556C190.135 19.6693 190.289 18.7313 190.289 17.742V17.532ZM186.551 17.532H190.737V18.484H186.551V17.532ZM198.884 22.278H210.35V23.23H198.884V22.278ZM204.022 20.346H205.17V22.712H204.022V20.346ZM204.008 16.118H205.002V16.692C205.002 17.14 204.913 17.5647 204.736 17.966C204.558 18.3673 204.306 18.736 203.98 19.072C203.662 19.408 203.294 19.7067 202.874 19.968C202.454 20.22 202.001 20.4393 201.516 20.626C201.03 20.8033 200.526 20.934 200.004 21.018L199.57 20.094C200.018 20.0287 200.456 19.926 200.886 19.786C201.324 19.6367 201.73 19.4593 202.104 19.254C202.477 19.0393 202.804 18.7967 203.084 18.526C203.373 18.2553 203.597 17.966 203.756 17.658C203.924 17.35 204.008 17.028 204.008 16.692V16.118ZM204.19 16.118H205.184V16.692C205.184 17.028 205.263 17.35 205.422 17.658C205.58 17.966 205.804 18.2553 206.094 18.526C206.383 18.7873 206.714 19.0253 207.088 19.24C207.461 19.4547 207.862 19.6367 208.292 19.786C208.73 19.926 209.174 20.0287 209.622 20.094L209.174 21.018C208.66 20.934 208.161 20.8033 207.676 20.626C207.2 20.4393 206.747 20.2153 206.318 19.954C205.898 19.6927 205.524 19.3987 205.198 19.072C204.88 18.736 204.633 18.372 204.456 17.98C204.278 17.5787 204.19 17.1493 204.19 16.692V16.118ZM200.158 24.462H208.908V28.592H207.746V25.386H200.158V24.462ZM220.345 15.922H221.493V28.592H220.345V15.922ZM221.227 21.13H223.565V22.11H221.227V21.13ZM211.693 17.952H219.155V18.904H211.693V17.952ZM215.487 19.94C216.084 19.94 216.611 20.066 217.069 20.318C217.535 20.57 217.899 20.9153 218.161 21.354C218.431 21.7833 218.567 22.2827 218.567 22.852C218.567 23.4213 218.431 23.9253 218.161 24.364C217.899 24.8027 217.535 25.148 217.069 25.4C216.611 25.6427 216.084 25.764 215.487 25.764C214.889 25.764 214.357 25.6427 213.891 25.4C213.433 25.148 213.069 24.8027 212.799 24.364C212.528 23.9253 212.393 23.4213 212.393 22.852C212.393 22.2827 212.528 21.7833 212.799 21.354C213.069 20.9153 213.433 20.57 213.891 20.318C214.357 20.066 214.889 19.94 215.487 19.94ZM215.487 20.906C215.104 20.906 214.763 20.99 214.465 21.158C214.166 21.326 213.928 21.5547 213.751 21.844C213.583 22.1333 213.499 22.4693 213.499 22.852C213.499 23.2347 213.583 23.5753 213.751 23.874C213.928 24.1633 214.166 24.392 214.465 24.56C214.763 24.7187 215.104 24.798 215.487 24.798C215.86 24.798 216.196 24.7187 216.495 24.56C216.793 24.392 217.027 24.1633 217.195 23.874C217.372 23.5753 217.461 23.2347 217.461 22.852C217.461 22.4693 217.372 22.1333 217.195 21.844C217.027 21.5547 216.793 21.326 216.495 21.158C216.196 20.99 215.86 20.906 215.487 20.906ZM214.885 16.076H216.047V18.372H214.885V16.076ZM233.867 15.922H235.029V28.592H233.867V15.922ZM230.157 17.294H231.305C231.305 18.2087 231.193 19.0907 230.969 19.94C230.755 20.7893 230.414 21.5967 229.947 22.362C229.481 23.118 228.874 23.8227 228.127 24.476C227.381 25.1293 226.475 25.7127 225.411 26.226L224.795 25.288C226.018 24.7 227.026 24.014 227.819 23.23C228.613 22.446 229.201 21.5733 229.583 20.612C229.966 19.6413 230.157 18.596 230.157 17.476V17.294ZM225.383 17.294H230.647V18.232H225.383V17.294Z" fill="white"/>
<g clip-path="url(#clip0_2509_604)">
<path d="M70.493 22.4923L65.3023 15H61V29H65.507V21.5065L70.6977 29H75V15H70.493V22.4923Z" fill="white"/>
</g>
<defs>
<clipPath id="clip0_2509_604">
<rect width="14" height="14" fill="white" transform="translate(61 15)"/>
</clipPath>
</defs>
</svg>
